<svg width="17" height="17" viewBox="0 0 17 17" fill="none" xmlns="http://www.w3.org/2000/svg">
<g clip-path="url(#clip0_544_9008)">
<path d="M15.0078 8.99139C15.0078 11.6344 12.1656 15.3664 8.5 15.3664C4.83437 15.3664 1.99219 11.6344 1.99219 8.99139C1.99219 8.99139 4.83437 5.80389 8.5 5.80389C12.1656 5.80389 15.0078 8.99139 15.0078 8.99139Z" fill="white"/>
<path d="M8.5 12.4844C9.60025 12.4844 10.4922 11.5924 10.4922 10.4922C10.4922 9.39193 9.60025 8.5 8.5 8.5C7.39975 8.5 6.50781 9.39193 6.50781 10.4922C6.50781 11.5924 7.39975 12.4844 8.5 12.4844Z" fill="#3EB9E4"/>
<path d="M16.4688 11.5016C16.3227 11.5016 16.1899 11.4219 16.1235 11.2891C14.4235 8.19453 11.3688 6.10937 8.50005 6.10937C5.6313 6.10937 2.57661 8.19453 0.876609 11.3023C0.770359 11.5016 0.531296 11.568 0.332077 11.4617C0.132859 11.3555 0.0664523 11.1164 0.172702 10.9172C2.03208 7.51719 5.29926 5.3125 8.50005 5.3125C11.7008 5.3125 14.968 7.51719 16.8141 10.9172C16.9204 11.1164 16.854 11.3555 16.6547 11.4617C16.6016 11.4883 16.5352 11.5016 16.4688 11.5016Z" fill="#444B54"/>
<path d="M8.49995 15.7117C6.01635 15.7117 3.70542 14.1047 2.17807 11.2891C2.07182 11.0899 2.13823 10.8508 2.33745 10.7445C2.53667 10.6383 2.77573 10.7047 2.88198 10.9039C4.27651 13.4539 6.32182 14.9016 8.51323 14.9016C10.7046 14.9016 12.7499 13.4406 14.1445 10.9039C14.2507 10.7047 14.4898 10.6383 14.689 10.7445C14.8882 10.8508 14.9546 11.0899 14.8484 11.2891C13.2945 14.1047 10.9835 15.7117 8.49995 15.7117Z" fill="#444B54"/>
<path d="M8.5 4.11719C8.27422 4.11719 8.10156 3.94453 8.10156 3.71875V1.32812C8.10156 1.10234 8.27422 0.929688 8.5 0.929688C8.72578 0.929688 8.89844 1.10234 8.89844 1.32812V3.71875C8.89844 3.94453 8.72578 4.11719 8.5 4.11719Z" fill="#444B54"/>
<path d="M3.2008 5.64455C3.10784 5.64455 3.01487 5.60471 2.93518 5.5383L2.12502 4.80784C1.96565 4.66174 1.95237 4.4094 2.09846 4.25002C2.24455 4.09065 2.4969 4.07737 2.65627 4.22346L3.46643 4.95393C3.6258 5.10002 3.63909 5.35237 3.49299 5.51174C3.4133 5.60471 3.30705 5.64455 3.2008 5.64455Z" fill="#444B54"/>
<path d="M13.7727 5.63125C13.6665 5.63125 13.5735 5.59141 13.4938 5.51172C13.3344 5.35234 13.3344 5.1 13.4938 4.95391L14.1977 4.23672C14.3571 4.07734 14.6094 4.07734 14.7555 4.23672C14.9149 4.39609 14.9149 4.64844 14.7555 4.79453L14.0516 5.51172C13.9852 5.59141 13.879 5.63125 13.7727 5.63125Z" fill="#444B54"/>
<path d="M11.1695 4.44919C11.1164 4.44919 11.0632 4.43591 11.0234 4.42263C10.8242 4.34294 10.7179 4.10388 10.8109 3.90466L11.621 1.93904C11.7007 1.73982 11.9398 1.63357 12.139 1.72654C12.3382 1.80623 12.4445 2.04529 12.3515 2.24451L11.5414 4.21013C11.475 4.35623 11.3289 4.44919 11.1695 4.44919Z" fill="#444B54"/>
<path d="M5.84379 4.46248C5.68442 4.46248 5.53832 4.36951 5.47192 4.21014L4.66176 2.25779C4.58207 2.05857 4.67504 1.81951 4.87426 1.73982C5.07348 1.66014 5.31254 1.75311 5.39223 1.95232L6.20239 3.91795C6.28207 4.11717 6.1891 4.35623 5.98989 4.43592C5.93676 4.46248 5.89692 4.46248 5.84379 4.46248Z" fill="#444B54"/>
</g>
<defs>
<clipPath id="clip0_544_9008">
<rect width="17" height="17" fill="white"/>
</clipPath>
</defs>
</svg>
