<svg width="16" height="16" viewBox="0 0 16 16" fill="none" xmlns="http://www.w3.org/2000/svg">
<path d="M5.96739 0C4.68805 0 3.64674 1.04098 3.64674 2.32065C3.64674 2.6769 3.72994 3.01327 3.87401 3.31522H1.65761C0.743603 3.31522 0 4.05882 0 4.97283V6.29891C0 6.97708 0.409963 7.56025 0.994565 7.81666V12.5978C0.994565 14.0602 2.1844 15.25 3.64674 15.25H11.6033C13.0656 15.25 14.2554 14.0602 14.2554 12.5978V7.81666C14.84 7.56025 15.25 6.97708 15.25 6.29891V4.97283C15.25 4.05882 14.5064 3.31522 13.5924 3.31522H11.376C11.5201 3.01327 11.6033 2.6769 11.6033 2.32065C11.6033 1.04098 10.562 0 9.28261 0C8.63349 0 8.0467 0.268641 7.625 0.699951C7.2033 0.268641 6.61651 0 5.96739 0ZM5.96739 1.32609C6.51573 1.32609 6.96196 1.77232 6.96196 2.32065V3.31522H5.96739C5.41905 3.31522 4.97283 2.86899 4.97283 2.32065C4.97283 1.77232 5.41905 1.32609 5.96739 1.32609ZM9.28261 1.32609C9.83095 1.32609 10.2772 1.77232 10.2772 2.32065C10.2772 2.86899 9.83095 3.31522 9.28261 3.31522H8.28804V2.32065C8.28804 1.77232 8.73427 1.32609 9.28261 1.32609ZM1.65761 4.6413H6.96196V6.63043H1.65761C1.47461 6.63043 1.32609 6.48158 1.32609 6.29891V4.97283C1.32609 4.79016 1.47461 4.6413 1.65761 4.6413ZM8.28804 4.6413H13.5924C13.7754 4.6413 13.9239 4.79016 13.9239 4.97283V6.29891C13.9239 6.48158 13.7754 6.63043 13.5924 6.63043H8.28804V4.6413ZM2.32065 7.95652H6.96196V13.9239H3.64674C2.9154 13.9239 2.32065 13.3292 2.32065 12.5978V7.95652ZM8.28804 7.95652H12.9293V12.5978C12.9293 13.3292 12.3346 13.9239 11.6033 13.9239H8.28804V7.95652Z" fill="#091C3E"/>
</svg>
