<svg width="21" height="20" viewBox="0 0 21 20" fill="none" xmlns="http://www.w3.org/2000/svg">
    <path
        d="M8.59 10.4586C7.75083 9.68029 6.37333 9.8353 5.74667 10.8736C5.34 11.5486 5.455 12.4195 5.95083 13.0311L7.44083 14.9511C7.72333 15.3145 7.6575 15.8378 7.29333 16.1203C6.93 16.4028 6.40667 16.337 6.12417 15.9728L4.63417 14.0528C3.69917 12.9003 3.56333 11.2653 4.31917 10.0128C4.42167 9.8428 4.54083 9.68696 4.66667 9.53946V4.66946C4.66667 3.57946 3.8825 2.58696 2.79833 2.4778C1.55167 2.3528 0.5 3.32863 0.5 4.5503V13.3395C0.5 15.1178 1.21083 16.8228 2.47417 18.0753L3.9675 19.5545C4.27583 19.8403 4.68 19.9986 5.10083 19.9986H11.3333C11.7933 19.9986 12.1667 19.6253 12.1667 19.1653V15.982C12.1667 14.6028 11.5967 13.2845 10.5917 12.3395L8.59 10.4578V10.4586ZM18.2017 2.47946C17.1175 2.5878 16.3333 3.58113 16.3333 4.67113V9.54113C16.4592 9.68863 16.5775 9.84363 16.6808 10.0145C17.4358 11.267 17.3008 12.902 16.3658 14.0545L13.8342 16.5745V19.1678C13.8342 19.4611 13.7742 19.7395 13.6808 20.0011H15.9008C16.3208 20.0011 16.7258 19.8428 17.0342 19.557L18.5258 18.0803C19.79 16.8286 20.5017 15.1228 20.5017 13.3428V4.55196C20.5017 3.3303 19.4508 2.35446 18.2033 2.47946H18.2017ZM15.2533 10.8745C14.6267 9.83613 13.2492 9.68113 12.41 10.4595L11.7167 11.1111L11.7333 11.127C12.6842 12.0211 13.3342 13.1803 13.6358 14.4336L15.0483 13.032C15.5442 12.4203 15.6592 11.5486 15.2525 10.8745H15.2533ZM14.6692 2.2928C14.6692 4.0953 12.3192 6.3353 11.1483 7.27446C10.7708 7.57696 10.2342 7.57696 9.85666 7.27446C8.68583 6.33446 6.33583 4.0953 6.33583 2.2928C6.28083 1.0853 7.2125 0.0611291 8.41917 0.00112915C9.62583 0.0611291 10.5575 1.0853 10.5025 2.2928C10.4475 1.0853 11.3792 0.0611291 12.5858 0.00112915C13.7925 0.0611291 14.7242 1.0853 14.6692 2.2928Z"
        fill="currentColor" />
</svg>