<svg width="20" height="20" viewBox="0 0 20 20" fill="none" xmlns="http://www.w3.org/2000/svg">
<path d="M4.55004 15.4083V12.975C4.55004 12.1666 5.18337 11.4416 6.08337 11.4416C6.89171 11.4416 7.61671 12.075 7.61671 12.975V15.3166C7.61671 16.9416 6.26671 18.2916 4.64171 18.2916C3.01671 18.2916 1.66671 16.9333 1.66671 15.3166V10.1833C1.57504 5.49998 5.27504 1.70831 9.95837 1.70831C14.6417 1.70831 18.3334 5.49998 18.3334 10.0916V15.225C18.3334 16.85 16.9834 18.2 15.3584 18.2C13.7334 18.2 12.3834 16.85 12.3834 15.225V12.8833C12.3834 12.075 13.0167 11.35 13.9167 11.35C14.725 11.35 15.45 11.9833 15.45 12.8833V15.4083" stroke="#134691" stroke-width="1.5" stroke-linecap="round" stroke-linejoin="round"/>
</svg>
