<svg width="20" height="20" viewBox="0 0 20 20" fill="none" xmlns="http://www.w3.org/2000/svg">
<path d="M16.6663 6.87501V15C16.6663 17.5 15.1747 18.3333 13.333 18.3333H6.66634C4.82467 18.3333 3.33301 17.5 3.33301 15V6.87501C3.33301 4.16667 4.82467 3.54167 6.66634 3.54167C6.66634 4.05834 6.87465 4.525 7.21632 4.86667C7.55799 5.20834 8.02467 5.41667 8.54134 5.41667H11.458C12.4913 5.41667 13.333 4.57501 13.333 3.54167C15.1747 3.54167 16.6663 4.16667 16.6663 6.87501Z" stroke="#134691" stroke-width="1.5" stroke-linecap="round" stroke-linejoin="round"/>
<path d="M13.3337 3.54167C13.3337 4.57501 12.492 5.41667 11.4587 5.41667H8.54199C8.02533 5.41667 7.55864 5.20834 7.21697 4.86667C6.8753 4.525 6.66699 4.05834 6.66699 3.54167C6.66699 2.50834 7.50866 1.66667 8.54199 1.66667H11.4587C11.9753 1.66667 12.442 1.87501 12.7837 2.21667C13.1253 2.55834 13.3337 3.02501 13.3337 3.54167Z" stroke="#134691" stroke-width="1.5" stroke-linecap="round" stroke-linejoin="round"/>
<path d="M6.66699 10.8333H10.0003" stroke="#134691" stroke-width="1.5" stroke-linecap="round" stroke-linejoin="round"/>
<path d="M6.66699 14.1667H13.3337" stroke="#134691" stroke-width="1.5" stroke-linecap="round" stroke-linejoin="round"/>
</svg>
