<svg width="13" height="14" viewBox="0 0 13 14" fill="none" xmlns="http://www.w3.org/2000/svg">
<path d="M8.25151 12.1833C8.02667 12.6704 7.87901 13.198 7.82196 13.753L12.5705 12.7656C12.7953 12.2785 12.943 11.7509 13 11.1959L8.25151 12.1833Z" fill="#091C3E"/>
<path d="M12.5705 9.80584C12.7953 9.31872 12.943 8.7911 13 8.23611L9.30077 9.00565V7.52678L12.5705 6.84701C12.7953 6.35989 12.943 5.83227 13 5.27729L9.30077 6.04682V0.723561C8.73363 1.03444 8.23026 1.44931 7.82085 1.93862V6.35442L6.34316 6.66201V0C5.77603 0.310879 5.27266 0.72575 4.86324 1.21506V6.96961L1.55328 7.65814C1.32844 8.14416 1.18078 8.67288 1.12373 9.22677L4.86324 8.44957V10.3138L0.855266 11.1468C0.630426 11.6339 0.482769 12.1615 0.42572 12.7165L4.62051 11.8441C4.96168 11.7751 5.25588 11.577 5.44604 11.3055L6.21564 10.189C6.29506 10.0729 6.34205 9.93391 6.34205 9.78394V8.14197L7.82197 7.83438V10.7943L12.5705 9.80584Z" fill="#091C3E"/>
</svg>
