<svg width="15" height="15" viewBox="0 0 15 15" fill="none" xmlns="http://www.w3.org/2000/svg">
<path d="M11.2932 9.30914C10.8521 9.30949 10.4178 9.41717 10.0276 9.62287C9.63745 9.82856 9.30321 10.1261 9.05372 10.4898L5.25677 8.77538C5.52646 8.12416 5.5275 7.39269 5.25969 6.7407L9.05138 5.01752C9.42114 5.5523 9.97033 5.93684 10.5993 6.10139C11.2283 6.26594 11.8955 6.1996 12.4797 5.9144C13.064 5.6292 13.5267 5.14404 13.7839 4.54692C14.0411 3.9498 14.0758 3.28026 13.8816 2.65977C13.6875 2.03927 13.2774 1.50891 12.7257 1.1649C12.174 0.820877 11.5173 0.685985 10.8746 0.784688C10.232 0.883391 9.64604 1.20915 9.22302 1.70288C8.8 2.1966 8.56795 2.8256 8.56896 3.47576C8.57143 3.62964 8.58705 3.78303 8.61563 3.93426L4.58477 5.76594C4.19763 5.40323 3.71297 5.16151 3.19034 5.07046C2.66771 4.97942 2.12987 5.04302 1.64288 5.25345C1.1559 5.46389 0.740996 5.81199 0.449135 6.25499C0.157274 6.69799 0.00117217 7.2166 6.57548e-06 7.7471C-0.00115902 8.2776 0.152663 8.79689 0.442574 9.24117C0.732485 9.68545 1.14586 10.0354 1.63191 10.2479C2.11796 10.4605 2.65552 10.5265 3.17855 10.4377C3.70158 10.349 4.18729 10.1094 4.57602 9.74839L8.61738 11.5731C8.58931 11.7242 8.57389 11.8773 8.5713 12.031C8.57118 12.5695 8.73077 13.0959 9.02987 13.5437C9.32897 13.9915 9.75415 14.3405 10.2516 14.5467C10.7491 14.7528 11.2966 14.8068 11.8247 14.7017C12.3529 14.5967 12.838 14.3374 13.2188 13.9566C13.5996 13.5759 13.8589 13.0907 13.9639 12.5626C14.0689 12.0344 14.015 11.487 13.8088 10.9895C13.6027 10.492 13.2537 10.0668 12.8059 9.76771C12.3581 9.46861 11.8316 9.30902 11.2932 9.30914ZM11.2932 1.91999C11.6009 1.91988 11.9017 2.01102 12.1576 2.1819C12.4136 2.35278 12.6131 2.59572 12.7309 2.87999C12.8487 3.16426 12.8796 3.47709 12.8197 3.77891C12.7597 4.08074 12.6116 4.358 12.394 4.57564C12.1765 4.79328 11.8993 4.94151 11.5975 5.00158C11.2957 5.06166 10.9828 5.03088 10.6985 4.91315C10.4142 4.79541 10.1712 4.59601 10.0002 4.34015C9.82923 4.0843 9.73797 3.78348 9.73797 3.47576C9.73828 3.06334 9.90221 2.66789 10.1938 2.37621C10.4853 2.08454 10.8807 1.92046 11.2932 1.91999ZM2.73792 9.30914C2.4302 9.30925 2.12935 9.21811 1.87343 9.04723C1.61751 8.87635 1.41801 8.63341 1.30017 8.34914C1.18233 8.06487 1.15143 7.75204 1.2114 7.45022C1.27136 7.14839 1.41949 6.87113 1.63704 6.65349C1.8546 6.43585 2.1318 6.28762 2.43361 6.22755C2.73541 6.16747 3.04825 6.19825 3.33257 6.31598C3.61688 6.43372 3.85989 6.63312 4.03087 6.88898C4.20184 7.14483 4.2931 7.44565 4.2931 7.75337C4.29264 8.16574 4.12866 8.5611 3.83712 8.85275C3.54559 9.14439 3.15029 9.30852 2.73792 9.30914ZM11.2932 13.5868C10.9854 13.5868 10.6847 13.4955 10.4288 13.3246C10.173 13.1536 9.97357 12.9106 9.85581 12.6264C9.73806 12.3421 9.70725 12.0293 9.76728 11.7275C9.82731 11.4257 9.97548 11.1485 10.1931 10.9309C10.4106 10.7133 10.6878 10.5652 10.9896 10.5051C11.2914 10.4451 11.6042 10.4759 11.8885 10.5937C12.1728 10.7114 12.4158 10.9108 12.5867 11.1667C12.7577 11.4225 12.8489 11.7233 12.8489 12.031C12.8486 12.4435 12.6846 12.839 12.3929 13.1307C12.1012 13.4224 11.7057 13.5864 11.2932 13.5868Z" fill="#091C3E"/>
</svg>
