<svg width="24" height="25" viewBox="0 0 24 25" fill="none" xmlns="http://www.w3.org/2000/svg">
<path d="M2 2.83393H3.74001C4.82001 2.83393 5.67 3.76393 5.58 4.83393L4.75 14.7939C4.61 16.4239 5.89999 17.8239 7.53999 17.8239H18.19C19.63 17.8239 20.89 16.6439 21 15.2139L21.54 7.71394C21.66 6.05394 20.4 4.70393 18.73 4.70393H5.82001" stroke="#091C3E" stroke-width="1.5" stroke-miterlimit="10" stroke-linecap="round" stroke-linejoin="round"/>
<path d="M16.25 22.8339C16.9404 22.8339 17.5 22.2743 17.5 21.5839C17.5 20.8936 16.9404 20.3339 16.25 20.3339C15.5596 20.3339 15 20.8936 15 21.5839C15 22.2743 15.5596 22.8339 16.25 22.8339Z" stroke="#091C3E" stroke-width="1.5" stroke-miterlimit="10" stroke-linecap="round" stroke-linejoin="round"/>
<path d="M8.25 22.8339C8.94036 22.8339 9.5 22.2743 9.5 21.5839C9.5 20.8936 8.94036 20.3339 8.25 20.3339C7.55964 20.3339 7 20.8936 7 21.5839C7 22.2743 7.55964 22.8339 8.25 22.8339Z" stroke="#091C3E" stroke-width="1.5" stroke-miterlimit="10" stroke-linecap="round" stroke-linejoin="round"/>
<path d="M9 8.83393H21" stroke="#091C3E" stroke-width="1.5" stroke-miterlimit="10" stroke-linecap="round" stroke-linejoin="round"/>
</svg>
