<svg width="20" height="20" viewBox="0 0 20 20" fill="none" xmlns="http://www.w3.org/2000/svg">
<path d="M18.3332 12.5V7.49999C18.3332 3.33332 16.6665 1.66666 12.4998 1.66666H7.49984C3.33317 1.66666 1.6665 3.33332 1.6665 7.49999V12.5C1.6665 16.6667 3.33317 18.3333 7.49984 18.3333H12.4998C16.6665 18.3333 18.3332 16.6667 18.3332 12.5Z" stroke="#134691" stroke-width="1.5" stroke-linecap="round" stroke-linejoin="round"/>
<path d="M2.1001 5.92499H17.9001" stroke="#134691" stroke-width="1.5" stroke-linecap="round" stroke-linejoin="round"/>
<path d="M7.1001 1.75833V5.80833" stroke="#134691" stroke-width="1.5" stroke-linecap="round" stroke-linejoin="round"/>
<path d="M12.8999 1.75833V5.43333" stroke="#134691" stroke-width="1.5" stroke-linecap="round" stroke-linejoin="round"/>
<path d="M8.125 12.0417V11.0417C8.125 9.75833 9.03333 9.23333 10.1417 9.87499L11.0083 10.375L11.875 10.875C12.9833 11.5167 12.9833 12.5667 11.875 13.2083L11.0083 13.7083L10.1417 14.2083C9.03333 14.85 8.125 14.325 8.125 13.0417V12.0417V12.0417Z" stroke="#134691" stroke-width="1.5" stroke-miterlimit="10" stroke-linecap="round" stroke-linejoin="round"/>
</svg>
