<svg width="40" height="40" viewBox="0 0 40 40" fill="none" xmlns="http://www.w3.org/2000/svg">
<path d="M13.125 30C12.2962 30 11.5013 30.3292 10.9153 30.9153C10.3292 31.5013 10 32.2962 10 33.125C10 33.9538 10.3292 34.7487 10.9153 35.3347C11.5013 35.9208 12.2962 36.25 13.125 36.25C13.9538 36.25 14.7487 35.9208 15.3347 35.3347C15.9208 34.7487 16.25 33.9538 16.25 33.125C16.25 32.2962 15.9208 31.5013 15.3347 30.9153C14.7487 30.3292 13.9538 30 13.125 30ZM29.375 30C28.5462 30 27.7513 30.3292 27.1653 30.9153C26.5792 31.5013 26.25 32.2962 26.25 33.125C26.25 33.9538 26.5792 34.7487 27.1653 35.3347C27.7513 35.9208 28.5462 36.25 29.375 36.25C30.2038 36.25 30.9987 35.9208 31.5847 35.3347C32.1708 34.7487 32.5 33.9538 32.5 33.125C32.5 32.2962 32.1708 31.5013 31.5847 30.9153C30.9987 30.3292 30.2038 30 29.375 30ZM7.80563 8.80938L7.18188 6.15937C6.85 4.7475 5.59063 3.75 4.14063 3.75H0.625L1.25 6.25H4.14063C4.43063 6.25 4.6825 6.44937 4.74875 6.73187L9.18188 25.5731C9.44813 26.7069 10.4488 27.5 11.615 27.5H31.4488C32.6675 27.5 33.7031 26.6281 33.9113 25.4288L36.4694 10.7206L7.80563 8.80938Z" fill="#9BAFCD"/>
</svg>
