<svg width="95" height="94" viewBox="0 0 95 94" fill="none" xmlns="http://www.w3.org/2000/svg">
<path d="M47.3667 93.7667C73.5266 93.7667 94.7333 72.7763 94.7333 46.8833C94.7333 20.9904 73.5266 0 47.3667 0C21.2068 0 0 20.9904 0 46.8833C0 72.7763 21.2068 93.7667 47.3667 93.7667Z" fill="#5EDD60"/>
<path d="M37.9948 66.3965L26.8881 55.6586C26.6479 55.4275 26.4569 55.151 26.3265 54.8456C26.1961 54.5401 26.1289 54.2119 26.1289 53.8803C26.1289 53.5487 26.1961 53.2204 26.3265 52.915C26.4569 52.6095 26.6479 52.3331 26.8881 52.1019L30.5713 48.5453C31.0652 48.0716 31.7259 47.8067 32.4137 47.8067C33.1014 47.8067 33.7622 48.0716 34.2561 48.5453L40.8678 54.9424L59.411 27.0388C59.7936 26.4757 60.3825 26.082 61.053 25.9408C61.7236 25.7996 62.4233 25.922 63.0044 26.2822L67.3882 29.0079C67.6746 29.1821 67.9226 29.4115 68.1177 29.6825C68.3128 29.9534 68.4509 30.2604 68.5239 30.5852C68.5968 30.9099 68.6032 31.2459 68.5425 31.5731C68.4818 31.9004 68.3553 32.2122 68.1706 32.4902L46.2137 65.5413C45.7737 66.1882 45.1958 66.7318 44.5206 67.1338C43.8455 67.5358 43.0895 67.7863 42.3059 67.8679C41.5224 67.9494 40.7303 67.8599 39.9854 67.6057C39.2405 67.3515 38.561 66.9387 37.9948 66.3965Z" fill="white"/>
</svg>
